<svg xmlns="http://www.w3.org/2000/svg" xmlns:xlink="http://www.w3.org/1999/xlink" width="225" height="77.485" viewBox="0 0 225 77.485"><defs><filter id="a" x="21" y="0" width="180.809" height="4" filterUnits="userSpaceOnUse"><feOffset dx="3" dy="3" input="SourceAlpha"/><feGaussianBlur result="b"/><feFlood flood-color="#ab0202" flood-opacity="0.51"/><feComposite operator="in" in2="b"/><feComposite in="SourceGraphic"/></filter><filter id="c" x="21" y="0" width="4" height="19.281" filterUnits="userSpaceOnUse"><feOffset dx="3" dy="3" input="SourceAlpha"/><feGaussianBlur result="d"/><feFlood flood-color="#ab0202" flood-opacity="0.51"/><feComposite operator="in" in2="d"/><feComposite in="SourceGraphic"/></filter><filter id="e" x="197.809" y="0" width="4" height="19.281" filterUnits="userSpaceOnUse"><feOffset dx="3" dy="3" input="SourceAlpha"/><feGaussianBlur result="f"/><feFlood flood-color="#ab0202" flood-opacity="0.51"/><feComposite operator="in" in2="f"/><feComposite in="SourceGraphic"/></filter><filter id="g" x="21" y="73.485" width="180.809" height="4" filterUnits="userSpaceOnUse"><feOffset dx="3" dy="3" input="SourceAlpha"/><feGaussianBlur result="h"/><feFlood flood-color="#ab0202" flood-opacity="0.51"/><feComposite operator="in" in2="h"/><feComposite in="SourceGraphic"/></filter><filter id="i" x="21" y="57.485" width="4" height="20" filterUnits="userSpaceOnUse"><feOffset dx="3" dy="3" input="SourceAlpha"/><feGaussianBlur result="j"/><feFlood flood-color="#ab0202" flood-opacity="0.51"/><feComposite operator="in" in2="j"/><feComposite in="SourceGraphic"/></filter><filter id="k" x="197.809" y="58.485" width="4" height="19" filterUnits="userSpaceOnUse"><feOffset dx="3" dy="3" input="SourceAlpha"/><feGaussianBlur result="l"/><feFlood flood-color="#ab0202" flood-opacity="0.51"/><feComposite operator="in" in2="l"/><feComposite in="SourceGraphic"/></filter><filter id="m" x="0" y="14.823" width="225" height="53" filterUnits="userSpaceOnUse"><feOffset dx="3" dy="5" input="SourceAlpha"/><feGaussianBlur result="n"/><feFlood flood-color="#ab0202" flood-opacity="0.51"/><feComposite operator="in" in2="n"/><feComposite in="SourceGraphic"/></filter><filter id="o" x="80.874" y="7.377" width="62.207" height="10.216" filterUnits="userSpaceOnUse"><feOffset dx="1" dy="4" input="SourceAlpha"/><feGaussianBlur result="p"/><feFlood flood-color="#ab0202" flood-opacity="0.51"/><feComposite operator="in" in2="p"/><feComposite in="SourceGraphic"/></filter><filter id="q" x="80.874" y="57.181" width="62.207" height="10.216" filterUnits="userSpaceOnUse"><feOffset dx="1" dy="4" input="SourceAlpha"/><feGaussianBlur result="r"/><feFlood flood-color="#ab0202" flood-opacity="0.51"/><feComposite operator="in" in2="r"/><feComposite in="SourceGraphic"/></filter></defs><g transform="translate(-521 2351.823)"><g transform="matrix(1, 0, 0, 1, 521, -2351.82)" filter="url(#a)"><line x2="176.809" transform="translate(21.5 0.5)" fill="none" stroke="#000" stroke-linecap="round" stroke-width="1"/></g><g transform="matrix(1, 0, 0, 1, 521, -2351.82)" filter="url(#c)"><path d="M0,15.281V0" transform="translate(21.5 0.5)" fill="none" stroke="#000" stroke-linecap="round" stroke-width="1"/></g><g transform="matrix(1, 0, 0, 1, 521, -2351.82)" filter="url(#e)"><path d="M0,15.281V0" transform="translate(198.31 0.5)" fill="none" stroke="#000" stroke-linecap="round" stroke-width="1"/></g><g transform="matrix(1, 0, 0, 1, 521, -2351.82)" filter="url(#g)"><line x2="176.809" transform="translate(21.5 73.98)" fill="none" stroke="#000" stroke-linecap="round" stroke-width="1"/></g><g transform="matrix(1, 0, 0, 1, 521, -2351.82)" filter="url(#i)"><path d="M0,0V16" transform="translate(21.5 57.98)" fill="none" stroke="#000" stroke-linecap="round" stroke-width="1"/></g><g transform="matrix(1, 0, 0, 1, 521, -2351.82)" filter="url(#k)"><path d="M0,0V15" transform="translate(198.31 58.98)" fill="none" stroke="#000" stroke-linecap="round" stroke-width="1"/></g><g transform="matrix(1, 0, 0, 1, 521, -2351.82)" filter="url(#m)"><text transform="translate(0 14.82)" font-size="45" font-family="Bahnschrift"><tspan x="3.312" y="36">CINE70MM</tspan></text></g><g transform="matrix(1, 0, 0, 1, 521, -2351.82)" filter="url(#o)"><path d="M61.5-2223a20.767,20.767,0,0,1,1.732-3.384c1.457-2.5,55.273-2,56.626-.105A9.65,9.65,0,0,1,121.5-2223" transform="translate(20 2235.97)" fill="none" stroke="#000" stroke-linecap="round" stroke-width="1"/></g><g transform="matrix(1, 0, 0, 1, 521, -2351.82)" filter="url(#q)"><path d="M61.5-2228.089a20.767,20.767,0,0,0,1.732,3.384c1.457,2.5,55.273,2,56.626.105a9.65,9.65,0,0,0,1.642-3.489" transform="translate(20 2285.9)" fill="none" stroke="#000" stroke-linecap="round" stroke-width="1"/></g></g></svg>